{
	"asset":{
		"generator":"Khronos glTF Blender I/O v5.2.39",
		"version":"2.0"
	},
	"scene":0,
	"scenes":[
		{
			"name":"Scene",
			"nodes":[
				0
			]
		}
	],
	"nodes":[
		{
			"mesh":0,
			"name":"board"
		}
	],
	"materials":[
		{
			"doubleSided":true,
			"name":"chess_set_board",
			"normalTexture":{
				"index":0
			},
			"pbrMetallicRoughness":{
				"baseColorTexture":{
					"index":1
				},
				"metallicFactor":0,
				"metallicRoughnessTexture":{
					"index":2
				}
			}
		},
		{
			"doubleSided":true,
			"name":"chess_set_pieces_white",
			"normalTexture":{
				"index":3
			},
			"pbrMetallicRoughness":{
				"baseColorTexture":{
					"index":4
				},
				"metallicFactor":0,
				"metallicRoughnessTexture":{
					"index":5
				}
			}
		},
		{
			"doubleSided":true,
			"name":"chess_set_pieces_black",
			"normalTexture":{
				"index":6
			},
			"pbrMetallicRoughness":{
				"baseColorTexture":{
					"index":7
				},
				"metallicFactor":0,
				"metallicRoughnessTexture":{
					"index":8
				}
			}
		}
	],
	"meshes":[
		{
			"name":"Cube.004",
			"primitives":[
				{
					"attributes":{
						"POSITION":0,
						"NORMAL":1,
						"TEXCOORD_0":2,
						"TEXCOORD_1":3
					},
					"indices":4,
					"material":0
				},
				{
					"attributes":{
						"POSITION":5,
						"NORMAL":6,
						"TEXCOORD_0":7,
						"TEXCOORD_1":8
					},
					"indices":9,
					"material":1
				},
				{
					"attributes":{
						"POSITION":10,
						"NORMAL":11,
						"TEXCOORD_0":12,
						"TEXCOORD_1":13
					},
					"indices":9,
					"material":2
				}
			]
		}
	],
	"textures":[
		{
			"sampler":0,
			"source":0
		},
		{
			"sampler":0,
			"source":1
		},
		{
			"sampler":0,
			"source":2
		},
		{
			"sampler":0,
			"source":3
		},
		{
			"sampler":0,
			"source":4
		},
		{
			"sampler":0,
			"source":5
		},
		{
			"sampler":0,
			"source":6
		},
		{
			"sampler":0,
			"source":7
		},
		{
			"sampler":0,
			"source":8
		}
	],
	"images":[
		{
			"mimeType":"image/png",
			"name":"chess_set_board_nor_gl_2k",
			"uri":"chess_set_board_nor_gl_2k.png"
		},
		{
			"mimeType":"image/png",
			"name":"chess_set_board_diff_2k",
			"uri":"chess_set_board_diff_2k.png"
		},
		{
			"mimeType":"image/png",
			"name":"chess_set_board_rough_2k",
			"uri":"chess_set_board_rough_2k.png"
		},
		{
			"mimeType":"image/png",
			"name":"chess_set_pieces_white_nor_gl_2k",
			"uri":"chess_set_pieces_white_nor_gl_2k.png"
		},
		{
			"mimeType":"image/png",
			"name":"chess_set_pieces_white_diff_2k",
			"uri":"chess_set_pieces_white_diff_2k.png"
		},
		{
			"mimeType":"image/png",
			"name":"chess_set_pieces_white_rough_2k",
			"uri":"chess_set_pieces_white_rough_2k.png"
		},
		{
			"mimeType":"image/png",
			"name":"chess_set_pieces_black_nor_gl_2k",
			"uri":"chess_set_pieces_black_nor_gl_2k.png"
		},
		{
			"mimeType":"image/png",
			"name":"chess_set_pieces_black_diff_2k",
			"uri":"chess_set_pieces_black_diff_2k.png"
		},
		{
			"mimeType":"image/png",
			"name":"chess_set_pieces_black_rough_2k",
			"uri":"chess_set_pieces_black_rough_2k.png"
		}
	],
	"accessors":[
		{
			"bufferView":0,
			"componentType":5126,
			"count":1526,
			"max":[
				0.27661898732185364,
				0.017392585054039955,
				0.27661898732185364
			],
			"min":[
				-0.27661898732185364,
				4.2891606426564977e-05,
				-0.27661898732185364
			],
			"type":"VEC3"
		},
		{
			"bufferView":1,
			"componentType":5126,
			"count":1526,
			"type":"VEC3"
		},
		{
			"bufferView":2,
			"componentType":5126,
			"count":1526,
			"type":"VEC2"
		},
		{
			"bufferView":3,
			"componentType":5126,
			"count":1526,
			"type":"VEC2"
		},
		{
			"bufferView":4,
			"componentType":5123,
			"count":6624,
			"type":"SCALAR"
		},
		{
			"bufferView":5,
			"componentType":5126,
			"count":23812,
			"max":[
				0.2210344523191452,
				0.11239584535360336,
				-0.1302797943353653
			],
			"min":[
				-0.22093741595745087,
				0.017126113176345825,
				-0.22360551357269287
			],
			"type":"VEC3"
		},
		{
			"bufferView":6,
			"componentType":5126,
			"count":23812,
			"type":"VEC3"
		},
		{
			"bufferView":7,
			"componentType":5126,
			"count":23812,
			"type":"VEC2"
		},
		{
			"bufferView":8,
			"componentType":5126,
			"count":23812,
			"type":"VEC2"
		},
		{
			"bufferView":9,
			"componentType":5123,
			"count":112068,
			"type":"SCALAR"
		},
		{
			"bufferView":10,
			"componentType":5126,
			"count":23812,
			"max":[
				0.22093741595745087,
				0.1123957708477974,
				0.2234642654657364
			],
			"min":[
				-0.2210344523191452,
				0.017126113176345825,
				0.12957145273685455
			],
			"type":"VEC3"
		},
		{
			"bufferView":11,
			"componentType":5126,
			"count":23812,
			"type":"VEC3"
		},
		{
			"bufferView":12,
			"componentType":5126,
			"count":23812,
			"type":"VEC2"
		},
		{
			"bufferView":13,
			"componentType":5126,
			"count":23812,
			"type":"VEC2"
		}
	],
	"bufferViews":[
		{
			"buffer":0,
			"byteLength":18312,
			"byteOffset":0,
			"target":34962
		},
		{
			"buffer":0,
			"byteLength":18312,
			"byteOffset":18312,
			"target":34962
		},
		{
			"buffer":0,
			"byteLength":12208,
			"byteOffset":36624,
			"target":34962
		},
		{
			"buffer":0,
			"byteLength":12208,
			"byteOffset":48832,
			"target":34962
		},
		{
			"buffer":0,
			"byteLength":13248,
			"byteOffset":61040,
			"target":34963
		},
		{
			"buffer":0,
			"byteLength":285744,
			"byteOffset":74288,
			"target":34962
		},
		{
			"buffer":0,
			"byteLength":285744,
			"byteOffset":360032,
			"target":34962
		},
		{
			"buffer":0,
			"byteLength":190496,
			"byteOffset":645776,
			"target":34962
		},
		{
			"buffer":0,
			"byteLength":190496,
			"byteOffset":836272,
			"target":34962
		},
		{
			"buffer":0,
			"byteLength":224136,
			"byteOffset":1026768,
			"target":34963
		},
		{
			"buffer":0,
			"byteLength":285744,
			"byteOffset":1250904,
			"target":34962
		},
		{
			"buffer":0,
			"byteLength":285744,
			"byteOffset":1536648,
			"target":34962
		},
		{
			"buffer":0,
			"byteLength":190496,
			"byteOffset":1822392,
			"target":34962
		},
		{
			"buffer":0,
			"byteLength":190496,
			"byteOffset":2012888,
			"target":34962
		}
	],
	"samplers":[
		{
			"magFilter":9729,
			"minFilter":9987
		}
	],
	"buffers":[
		{
			"byteLength":2203384,
			"uri":"chess_set_2k.bin"
		}
	]
}
